Coordinates
version=1
nRows=14
nColumns=40
inDegrees=yes

Units are S.I. units (second, meters, Newtons, ...)
If the header above contains a line with 'inDegrees', this indicates whether rotational values are in degrees (yes) or radians (no).

endheader
time	pelvis_tilt	pelvis_list	pelvis_rotation	pelvis_tx	pelvis_ty	pelvis_tz	hip_flexion_r	hip_adduction_r	hip_rotation_r	knee_angle_r	knee_angle_r_beta	ankle_angle_r	subtalar_angle_r	mtp_angle_r	hip_flexion_l	hip_adduction_l	hip_rotation_l	knee_angle_l	knee_angle_l_beta	ankle_angle_l	subtalar_angle_l	mtp_angle_l	lumbar_extension	lumbar_bending	lumbar_rotation	arm_flex_r	arm_add_r	arm_rot_r	elbow_flex_r	pro_sup_r	wrist_flex_r	wrist_dev_r	arm_flex_l	arm_add_l	arm_rot_l	elbow_flex_l	pro_sup_l	wrist_flex_l	wrist_dev_l
      5.12000000	     47.61921712	     -2.04317234	   -176.49829933	      0.43690299	      0.65969044	     -0.61351231	    105.20024747	    -13.17785664	      0.62431931	     68.20668083	      1.19043115	     14.52108258	      0.00000000	      0.00000000	    103.06186926	     -5.84198615	     -2.24588728	     64.50213734	      1.12577467	     10.31044310	      0.00000000	      0.00000000	    -25.38520809	      3.09409891	      3.14256947	     66.36027524	    -14.36005955	     47.63279260	      2.36191509	     88.26440290	      0.00000000	      0.00000000	     57.08759833	      1.06717583	     44.06001640	      0.63406075	      2.71883926	      0.00000000	      0.00000000
      5.12500000	     47.69267863	     -1.84751524	   -176.61776145	      0.43707674	      0.66131942	     -0.61398904	    104.91916121	    -13.07488248	      0.26006734	     67.72120660	      1.18195803	     14.35197564	      0.00000000	      0.00000000	    102.94604572	     -6.00195358	     -2.15360982	     64.12120355	      1.11912612	     10.06815527	      0.00000000	      0.00000000	    -25.44951109	      3.24087274	      3.33119203	     66.43918862	    -14.33585186	     47.90820190	      2.30044823	     88.20480270	      0.00000000	      0.00000000	     57.05088715	      1.02409788	     44.46063257	      0.63126366	      2.85665777	      0.00000000	      0.00000000
      5.13000000	     47.73905557	     -1.78460262	   -176.68410677	      0.43718601	      0.66302983	     -0.61434471	    104.65660045	    -13.01119805	      0.04381110	     67.26616502	      1.17401605	     14.20264232	      0.00000000	      0.00000000	    102.69408368	     -5.94463739	     -1.91267808	     63.62847343	      1.11052636	     10.01878380	      0.00000000	      0.00000000	    -25.56695091	      3.27157853	      3.40209175	     66.52373093	    -14.30870081	     47.94243395	      2.34580281	     88.25087024	      0.00000000	      0.00000000	     57.20606205	      1.01915659	     43.99684158	      0.62851345	      2.78272823	      0.00000000	      0.00000000
      5.13500000	     47.82708423	     -1.70485236	   -176.65856712	      0.43737088	      0.66474279	     -0.61440555	    104.44743082	    -13.04631930	     -0.12744476	     66.81339949	      1.16611381	     14.00762222	      0.00000000	      0.00000000	    102.50957932	     -5.89795338	     -1.89415255	     63.14024481	      1.10200516	      9.81174228	      0.00000000	      0.00000000	    -25.62586977	      3.37711188	      3.41205995	     66.60126343	    -14.32192977	     48.00831107	      2.36754437	     88.26758292	      0.00000000	      0.00000000	     57.29626659	      1.03367409	     43.84927785	      0.62857744	      2.75670687	      0.00000000	      0.00000000
      5.14000000	     47.89694564	     -1.62083949	   -176.61278164	      0.43755706	      0.66642516	     -0.61443266	    104.22480025	    -13.11889653	     -0.31759387	     66.37396149	      1.15844417	     13.85914709	      0.00000000	      0.00000000	    102.30913299	     -5.84032516	     -1.89510332	     62.65891504	      1.09360437	      9.60201569	      0.00000000	      0.00000000	    -25.69532403	      3.49978075	      3.40005665	     66.66951401	    -14.33620148	     48.15336855	      2.36765189	     88.23302029	      0.00000000	      0.00000000	     57.26931500	      1.00096717	     44.43960260	      0.62347750	      2.75232924	      0.00000000	      0.00000000
      5.14500000	     47.98998526	     -1.67371205	   -176.51347184	      0.43775967	      0.66811667	     -0.61419820	    104.06808653	    -13.25304280	     -0.37362488	     65.92262142	      1.15056680	     13.66521053	      0.00000000	      0.00000000	    102.05862503	     -5.68823725	     -1.99338751	     62.11728203	      1.08415109	      9.45599748	      0.00000000	      0.00000000	    -25.73472662	      3.52860294	      3.28005762	     66.75082018	    -14.33767120	     48.47092531	      2.37680896	     88.23867770	      0.00000000	      0.00000000	     57.26025736	      0.97650565	     44.91075540	      0.62326895	      2.71611218	      0.00000000	      0.00000000
      5.15000000	     48.04782022	     -1.64437207	   -176.56936015	      0.43787221	      0.66983854	     -0.61440782	    103.83748326	    -13.21144724	     -0.52124012	     65.47884996	      1.14282152	     13.41653296	      0.00000000	      0.00000000	    101.84652785	     -5.75512886	     -2.04404568	     61.66066414	      1.07618161	      9.21863797	      0.00000000	      0.00000000	    -25.83230680	      3.54646157	      3.35933047	     66.81094800	    -14.35924716	     48.20903538	      2.42924508	     88.25392600	      0.00000000	      0.00000000	     57.32994391	      0.96783985	     44.99157628	      0.62054568	      2.72962965	      0.00000000	      0.00000000
      5.15500000	     48.10201137	     -1.35105386	   -176.62877729	      0.43802587	      0.67148517	     -0.61484504	    103.49681696	    -13.13410342	     -0.90961440	     64.98594112	      1.13421864	     13.33766275	      0.00000000	      0.00000000	    101.72005443	     -5.81868331	     -1.81254798	     61.23898186	      1.06882186	      8.98597854	      0.00000000	      0.00000000	    -25.90488759	      3.82222692	      3.55055145	     66.88210676	    -14.36296115	     48.35049846	      2.43407481	     88.25543821	      0.00000000	      0.00000000	     57.11227156	      0.88167350	     46.82116390	      0.61538842	      2.69438029	      0.00000000	      0.00000000
      5.16000000	     48.22573143	     -1.35388890	   -176.72097628	      0.43827724	      0.67314033	     -0.61505858	    103.32341421	    -13.03254967	     -1.01552910	     64.46395944	      1.12510834	     13.08883212	      0.00000000	      0.00000000	    101.54719413	     -5.88688129	     -1.83291623	     60.74494318	      1.06019926	      8.80901557	      0.00000000	      0.00000000	    -25.92092808	      3.79003230	      3.63780463	     66.93673851	    -14.35060732	     48.19529105	      2.43134885	     88.27926057	      0.00000000	      0.00000000	     57.17187189	      0.88530146	     46.89626281	      0.61466088	      2.67290129	      0.00000000	      0.00000000
      5.16500000	     48.30021289	     -1.42988705	   -176.64360324	      0.43830711	      0.67483805	     -0.61475566	    103.14137501	    -13.16391437	     -1.08550796	     64.02919307	      1.11752024	     12.91904870	      0.00000000	      0.00000000	    101.29444234	     -5.78159643	     -2.01217827	     60.24107228	      1.05140506	      8.63046386	      0.00000000	      0.00000000	    -25.98911285	      3.79458396	      3.52888251	     67.00633389	    -14.33889407	     48.11395370	      2.39754759	     88.25629606	      0.00000000	      0.00000000	     57.43795956	      0.96266899	     45.19832251	      0.61504135	      2.72075036	      0.00000000	      0.00000000
      5.17000000	     48.39541336	     -1.43904559	   -176.74581547	      0.43848180	      0.67648220	     -0.61498226	    102.92448525	    -13.07403039	     -1.25472362	     63.50825856	      1.10842821	     12.71237958	      0.00000000	      0.00000000	    101.11178233	     -5.85829191	     -2.02815661	     59.78368686	      1.04342217	      8.43955883	      0.00000000	      0.00000000	    -26.02003183	      3.76072084	      3.61542680	     67.05655606	    -14.30115736	     48.10368006	      2.41426822	     88.28633913	      0.00000000	      0.00000000	     57.35335028	      0.92986429	     46.16091992	      0.61180621	      2.67484844	      0.00000000	      0.00000000
      5.17500000	     48.41949490	     -1.14695091	   -176.69157322	      0.43854829	      0.67816316	     -0.61503742	    102.58026122	    -13.16409532	     -1.66573367	     63.05781578	      1.10056650	     12.55995523	      0.00000000	      0.00000000	    100.92057572	     -5.73036518	     -1.71245714	     59.31025365	      1.03515921	      8.22583026	      0.00000000	      0.00000000	    -26.11593118	      4.10958109	      3.70081335	     67.14978390	    -14.29611115	     48.28707572	      2.34300579	     88.26664692	      0.00000000	      0.00000000	     57.28648039	      0.91892753	     46.78028569	      0.60758514	      2.66020565	      0.00000000	      0.00000000
      5.18000000	     48.39462229	     -1.17234810	   -176.48902552	      0.43844706	      0.68009795	     -0.61427075	    102.27124802	    -13.50568356	     -1.84310543	     62.62466824	      1.09300665	     12.43883488	      0.00000000	      0.00000000	    100.60220051	     -5.63124150	     -2.17241599	     58.85659707	      1.02724141	      7.91188084	      0.00000000	      0.00000000	    -26.28143394	      4.26021748	      3.44680636	     67.26044263	    -14.24782479	     49.10710731	      2.30615604	     88.25065406	      0.00000000	      0.00000000	     57.76690034	      1.05294268	     43.53699423	      0.61615868	      2.70102786	      0.00000000	      0.00000000
      5.18500000	     48.57037649	     -1.09143122	   -176.89455711	      0.43868785	      0.68157876	     -0.61533942	    102.07191868	    -13.00577891	     -2.08788968	     62.01822625	      1.08242224	     12.13055917	      0.00000000	      0.00000000	    100.53873014	     -5.94585420	     -1.79721804	     58.44138918	      1.01999466	      7.79613924	      0.00000000	      0.00000000	    -26.23636655	      4.18578654	      3.87833970	     67.29935984	    -14.23631732	     48.49127507	      2.32422199	     88.29941987	      0.00000000	      0.00000000	     57.46771815	      0.93879292	     45.65876883	      0.61412784	      2.78983690	      0.00000000	      0.00000000
